# xmcd
#
# Track frame offsets:
#	150
#	17097
#	42342
#	61275
#	83702
#	112360
#	137950
#	163507
#	188007
#	211042
#
# Disc length: 3125 seconds
#
# Revision: 3
# Processed by: cddbd v1.5.2PL0 Copyright (c) Steve Scherf et al.
# Submitted via: audiograbber 1.80.04
#
DISCID=860c330a
DTITLE=Diversos - 100% Pure Dance
DYEAR=1995
DGENRE=Dance
TTITLE0=Jamie Dee - Don't Be Shy
TTITLE1=Red Velvet - Lady Don't Cry
TTITLE2=Kim Sanders - Tell Me That You Want Me
TTITLE3=Orlando - Rock My Heart
TTITLE4=Magnetik II - You Feel Good
TTITLE5=House Cream - Get Me Into Your Heart
TTITLE6=Time Out - Harden My Heart (Remix)
TTITLE7=Georgia Williams - Keep It Up
TTITLE8=Hypnomatic - Sexy Feeling
TTITLE9=Kika - Japanese Boy
EXTD=ID3G: 3
EXTT0=
EXTT1=
EXTT2=
EXTT3=
EXTT4=
EXTT5=
EXTT6=
EXTT7=
EXTT8=
EXTT9=
PLAYORDER=
